<svg width="810" height="1940" viewBox="0 0 810 1940" fill="none" xmlns="http://www.w3.org/2000/svg">
<path d="M0.5 0V78.5C0.5 89.5457 9.45431 98.5 20.5 98.5H789C800.046 98.5 809 107.454 809 118.5V482.5C809 493.546 800.046 502.5 789 502.5H21.9351C10.9148 502.5 1.97099 511.415 1.93514 522.435L0.565288 943.435C0.529265 954.506 9.49407 963.5 20.5652 963.5H789C800.046 963.5 809 972.454 809 983.5V1405C809 1416.05 800.046 1425 789 1425H20.5C9.45431 1425 0.5 1433.95 0.5 1445V1752C0.5 1763.05 9.45431 1772 20.5 1772H398C409.046 1772 418 1780.95 418 1792V1940" stroke="url(#paint0_linear_265_2639)" stroke-linejoin="round" stroke-dasharray="11 8"/>
<defs>
<linearGradient id="paint0_linear_265_2639" x1="82.5" y1="-65" x2="404.75" y2="1940" gradientUnits="userSpaceOnUse">
<stop/>
<stop offset="1" stop-color="#434343"/>
</linearGradient>
</defs>
</svg>
