<svg width="24" height="25" viewBox="0 0 24 25" fill="none" xmlns="http://www.w3.org/2000/svg">
<mask id="mask0_1944_4811" style="mask-type:alpha" maskUnits="userSpaceOnUse" x="0" y="0" width="24" height="25">
<rect y="0.5" width="24" height="24" rx="12" fill="#D9D9D9"/>
</mask>
<g mask="url(#mask0_1944_4811)">
<path d="M39 7.81665H0V9.67163H39V7.81665Z" fill="#DB2E2E"/>
<path d="M39 4.10669H0V5.96164H39V4.10669Z" fill="#DB2E2E"/>
<path d="M39 0.396729H0V2.25171H39V0.396729Z" fill="#DB2E2E"/>
<path d="M39 11.5267H0V13.3817H39V11.5267Z" fill="#DB2E2E"/>
<path d="M39 15.2365H0V17.0915H39V15.2365Z" fill="#DB2E2E"/>
<path d="M39 18.9464H0V20.8013H39V18.9464Z" fill="#DB2E2E"/>
<path d="M39 22.645H0V24.4999H39V22.645Z" fill="#DB2E2E"/>
<path d="M39 5.96173H0V7.81671H39V5.96173Z" fill="white"/>
<path d="M39 2.25177H0V4.10675H39V2.25177Z" fill="white"/>
<path d="M39 9.67169H0V11.5267H39V9.67169Z" fill="white"/>
<path d="M39 13.3702H0V15.2252H39V13.3702Z" fill="white"/>
<path d="M39 17.0916H0V18.9465H39V17.0916Z" fill="white"/>
<path d="M39 20.8015H0V22.6565H39V20.8015Z" fill="white"/>
<path d="M14.5781 0.453552H0V11.6858H14.5781V0.453552Z" fill="#2E4593"/>
<path d="M12.1881 2.68426L12.3474 3.11668L11.9833 2.84357H11.9719L11.6077 3.11668L11.7671 2.68426L11.3801 2.4339H11.8353L11.9719 1.99005L12.1085 2.4339H12.5751L12.1881 2.68426Z" fill="white"/>
<path d="M12.1881 4.96036L12.3474 5.39278L11.9833 5.11967H11.9719L11.6077 5.39278L11.7671 4.96036V4.94897L11.3801 4.69861H11.8353L11.9719 4.25476L12.1085 4.69861H12.5751L12.1881 4.94897V4.96036Z" fill="white"/>
<path d="M12.1881 7.22491L12.3474 7.65737L11.9833 7.38422H11.9719L11.6077 7.65737L11.7671 7.22491L11.3801 6.96315H11.8353L11.9719 6.5307L12.1085 6.96315H12.5751L12.1881 7.22491Z" fill="white"/>
<path d="M12.1881 9.48953L12.3474 9.92198L11.9833 9.64887H11.9719L11.6077 9.92198L11.7671 9.48953L11.3801 9.2278H11.8353L11.9719 8.79535L12.1085 9.2278V9.23916V9.2278H12.5751L12.1881 9.48953Z" fill="white"/>
<path d="M9.77552 2.68426L9.93485 3.11668L9.57068 2.84357H9.55931L9.19514 3.11668L9.35446 2.68426L8.96753 2.4339H9.43412L9.55931 1.99005L9.69586 2.4339H10.1625L9.77552 2.68426Z" fill="white"/>
<path d="M9.77552 4.96036L9.93485 5.39278L9.57068 5.11967H9.55931L9.19514 5.39278L9.35446 4.96036V4.94897L8.96753 4.69861H9.43412L9.55931 4.25476L9.69586 4.69861H10.1625L9.77552 4.94897V4.96036Z" fill="white"/>
<path d="M9.77552 7.22491L9.93485 7.65737L9.57068 7.38422H9.55931L9.19514 7.65737L9.35446 7.22491L8.96753 6.96315H9.43412L9.55931 6.5307L9.69586 6.96315H10.1625L9.77552 7.22491Z" fill="white"/>
<path d="M9.77552 9.48953L9.93485 9.92198L9.57068 9.64887H9.55931L9.19514 9.92198L9.35446 9.48953L8.96753 9.2278H9.43412L9.55931 8.79535L9.69586 9.2278V9.23916V9.2278H10.1625L9.77552 9.48953Z" fill="white"/>
<path d="M7.36293 2.68426L7.52225 3.11668L7.15808 2.84357H7.1467L6.78253 3.11668L6.94185 2.68426L6.55493 2.4339H7.02152L7.1467 1.99005L7.28326 2.4339H7.74985L7.36293 2.68426Z" fill="white"/>
<path d="M7.36293 4.96036L7.52225 5.39278L7.15808 5.11967H7.1467L6.78253 5.39278L6.94185 4.96036V4.94897L6.55493 4.69861H7.02152L7.1467 4.25476L7.28326 4.69861H7.74985L7.36293 4.94897V4.96036Z" fill="white"/>
<path d="M7.36293 7.22491L7.52225 7.65737L7.15808 7.38422H7.1467L6.78253 7.65737L6.94185 7.22491L6.55493 6.96315H7.02152L7.1467 6.5307L7.28326 6.96315H7.74985L7.36293 7.22491Z" fill="white"/>
<path d="M7.36293 9.48953L7.52225 9.92198L7.15808 9.64887H7.1467L6.78253 9.92198L6.94185 9.48953L6.55493 9.2278H7.02152L7.1467 8.79535L7.28326 9.2278V9.23916V9.2278H7.74985L7.36293 9.48953Z" fill="white"/>
<path d="M4.99574 2.68426L5.15506 3.11668L4.77951 2.84357L4.41535 3.11668L4.56329 2.68426H4.57467H4.56329L4.18774 2.4339H4.64295L4.76814 1.99005L4.91608 2.4339H4.90469H4.91608H5.37129L4.99574 2.68426Z" fill="white"/>
<path d="M4.99574 4.96036L5.15506 5.39278L4.77951 5.11967L4.41535 5.39278L4.56329 4.96036L4.57467 4.94897H4.56329L4.18774 4.69861H4.64295L4.76814 4.25476L4.91608 4.69861H4.90469H4.91608H5.37129L4.99574 4.94897V4.96036Z" fill="white"/>
<path d="M4.99574 7.22491L5.15506 7.65737L4.77951 7.38422L4.41535 7.65737L4.56329 7.22491H4.57467H4.56329L4.18774 6.96315H4.64295L4.76814 6.5307L4.91608 6.96315H4.90469H4.91608H5.37129L4.99574 7.22491Z" fill="white"/>
<path d="M4.99574 9.48953L5.15506 9.92198L4.77951 9.64887L4.41535 9.92198L4.56329 9.48953H4.57467H4.56329L4.18774 9.2278H4.64295L4.76814 8.79535L4.91608 9.2278L4.90469 9.23916L4.91608 9.2278H5.37129L4.99574 9.48953Z" fill="white"/>
<path d="M2.61733 2.68426L2.77665 3.11668L2.4011 2.84357L2.03694 3.11668L2.19626 2.68426L1.80933 2.4339H2.27592L2.4011 1.99005L2.53767 2.4339H3.00425L2.61733 2.68426Z" fill="white"/>
<path d="M2.61733 4.96036L2.77665 5.39278L2.4011 5.11967L2.03694 5.39278L2.19626 4.96036V4.94897L1.80933 4.69861H2.27592L2.4011 4.25476L2.53767 4.69861H3.00425L2.61733 4.94897V4.96036Z" fill="white"/>
<path d="M2.61733 7.22491L2.77665 7.65737L2.4011 7.38422L2.03694 7.65737L2.19626 7.22491L1.80933 6.96315H2.27592L2.4011 6.5307L2.53767 6.96315H3.00425L2.61733 7.22491Z" fill="white"/>
<path d="M2.61733 9.48953L2.77665 9.92198L2.4011 9.64887L2.03694 9.92198L2.19626 9.48953L1.80933 9.2278H2.27592L2.4011 8.79535L2.53767 9.2278V9.23916V9.2278H3.00425L2.61733 9.48953Z" fill="white"/>
<path d="M13.3602 3.82212L13.5196 4.25454L13.144 3.98142L12.7799 4.25454L12.9278 3.82212L12.9392 3.81073H12.9278L12.5522 3.56036H13.0075L13.1326 3.11652L13.2806 3.56036H13.7358L13.3602 3.81073V3.82212Z" fill="white"/>
<path d="M13.3602 6.08679L13.5196 6.51924L13.144 6.24609L12.7799 6.51924L12.9278 6.08679H12.9392H12.9278L12.5522 5.82503H13.0075L13.1326 5.39258L13.2806 5.82503H13.7358L13.3602 6.08679Z" fill="white"/>
<path d="M13.3602 8.36286L13.5196 8.79531L13.144 8.52216L12.7799 8.79531L12.9278 8.36286L12.9392 8.35146H12.9278L12.5522 8.1011H13.0075L13.1326 7.65729L13.2806 8.1011H13.7358L13.3602 8.35146V8.36286Z" fill="white"/>
<path d="M13.3602 10.6275L13.5196 11.0714L13.144 10.7869L12.7799 11.0714L12.9278 10.6275H12.9392H12.9278L12.5522 10.3772H13.0075L13.1326 9.93335L13.2806 10.3772H13.7358L13.3602 10.6275Z" fill="white"/>
<path d="M13.3602 1.55758L13.5196 1.99003L13.144 1.72828V1.71692V1.72828L12.7799 1.99003L12.9278 1.55758H12.9392H12.9278L12.5522 1.30721H13.0075L13.1326 0.863403L13.2806 1.30721H13.7358L13.3602 1.55758Z" fill="white"/>
<path d="M11.0045 3.82212L11.1525 4.25454L10.7883 3.98142L10.4241 4.25454L10.5721 3.82212V3.81073L10.1965 3.56036H10.6517L10.7769 3.11652L10.9135 3.56036H10.9249H11.3801L11.0045 3.81073V3.82212Z" fill="white"/>
<path d="M11.0045 6.08679L11.1525 6.51924L10.7883 6.24609L10.4241 6.51924L10.5721 6.08679L10.1965 5.82503H10.6517L10.7769 5.39258L10.9135 5.82503H10.9249H11.3801L11.0045 6.08679Z" fill="white"/>
<path d="M11.0045 8.36286L11.1525 8.79531L10.7883 8.52216L10.4241 8.79531L10.5721 8.36286V8.35146L10.1965 8.1011H10.6517L10.7769 7.65729L10.9135 8.1011H10.9249H11.3801L11.0045 8.35146V8.36286Z" fill="white"/>
<path d="M11.0045 10.6275L11.1525 11.0714L10.7883 10.7869L10.4241 11.0714L10.5721 10.6275L10.1965 10.3772H10.6517L10.7769 9.93335L10.9135 10.3772H10.9249H11.3801L11.0045 10.6275Z" fill="white"/>
<path d="M11.0045 1.55758L11.1525 1.99003L10.7883 1.72828V1.71692V1.72828L10.4241 1.99003L10.5721 1.55758L10.1965 1.30721H10.6517L10.7769 0.863403L10.9135 1.30721H10.9249H11.3801L11.0045 1.55758Z" fill="white"/>
<path d="M8.54652 3.82212L8.70584 4.25454L8.33029 3.98142L7.96613 4.25454L8.12545 3.82212V3.81073L7.73853 3.56036H8.19373L8.33029 3.11652L8.46686 3.56036H8.93344L8.54652 3.81073V3.82212Z" fill="white"/>
<path d="M8.54652 6.08679L8.70584 6.51924L8.33029 6.24609L7.96613 6.51924L8.12545 6.08679L7.73853 5.82503H8.19373L8.33029 5.39258L8.46686 5.82503H8.93344L8.54652 6.08679Z" fill="white"/>
<path d="M8.54652 8.36286L8.70584 8.79531L8.33029 8.52216L7.96613 8.79531L8.12545 8.36286V8.35146L7.73853 8.1011H8.19373L8.33029 7.65729L8.46686 8.1011H8.93344L8.54652 8.35146V8.36286Z" fill="white"/>
<path d="M8.54652 10.6275L8.70584 11.0714L8.33029 10.7869L7.96613 11.0714L8.12545 10.6275L7.73853 10.3772H8.19373L8.33029 9.93335L8.46686 10.3772H8.93344L8.54652 10.6275Z" fill="white"/>
<path d="M8.54652 1.55758L8.70584 1.99003L8.33029 1.72828V1.71692V1.72828L7.96613 1.99003L8.12545 1.55758L7.73853 1.30721H8.19373L8.33029 0.863403L8.46686 1.30721H8.93344L8.54652 1.55758Z" fill="white"/>
<path d="M6.15663 3.82212L6.30458 4.25454L5.94041 3.98142L5.56486 4.25454L5.72418 3.82212V3.81073L5.34863 3.56036H5.80384L5.92903 3.11652L6.06559 3.56036H6.53218L6.14525 3.81073L6.15663 3.82212Z" fill="white"/>
<path d="M6.15663 6.08679L6.30458 6.51924L5.94041 6.24609L5.56486 6.51924L5.72418 6.08679L5.34863 5.82503H5.80384L5.92903 5.39258L6.06559 5.82503H6.53218L6.14525 6.08679H6.15663Z" fill="white"/>
<path d="M6.15663 8.36286L6.30458 8.79531L5.94041 8.52216L5.56486 8.79531L5.72418 8.36286V8.35146L5.34863 8.1011H5.80384L5.92903 7.65729L6.06559 8.1011H6.53218L6.14525 8.35146L6.15663 8.36286Z" fill="white"/>
<path d="M6.15663 10.6275L6.30458 11.0714L5.94041 10.7869L5.56486 11.0714L5.72418 10.6275L5.34863 10.3772H5.80384L5.92903 9.93335L6.06559 10.3772H6.53218L6.14525 10.6275H6.15663Z" fill="white"/>
<path d="M6.15663 1.55758L6.30458 1.99003L5.94041 1.72828V1.71692V1.72828L5.56486 1.99003L5.72418 1.55758L5.34863 1.30721H5.80384L5.92903 0.863403L6.06559 1.30721H6.53218L6.14525 1.55758H6.15663Z" fill="white"/>
<path d="M3.80091 3.82212L3.96025 4.25454L3.5847 3.98142L3.22053 4.25454L3.36847 3.82212L3.37985 3.81073L2.99292 3.56036H3.44813L3.57331 3.11652L3.72125 3.56036H4.17646L3.80091 3.81073V3.82212Z" fill="white"/>
<path d="M3.80091 6.08679L3.96025 6.51924L3.5847 6.24609L3.22053 6.51924L3.36847 6.08679H3.37985L2.99292 5.82503H3.44813L3.57331 5.39258L3.72125 5.82503H4.17646L3.80091 6.08679Z" fill="white"/>
<path d="M3.80091 8.36286L3.96025 8.79531L3.5847 8.52216L3.22053 8.79531L3.36847 8.36286L3.37985 8.35146L2.99292 8.1011H3.44813L3.57331 7.65729L3.72125 8.1011H4.17646L3.80091 8.35146V8.36286Z" fill="white"/>
<path d="M3.80091 10.6275L3.96025 11.0714L3.5847 10.7869L3.22053 11.0714L3.36847 10.6275H3.37985L2.99292 10.3772H3.44813L3.57331 9.93335L3.72125 10.3772H4.17646L3.80091 10.6275Z" fill="white"/>
<path d="M3.80091 1.55758L3.96025 1.99003L3.5847 1.72828V1.71692V1.72828L3.22053 1.99003L3.36847 1.55758H3.37985L2.99292 1.30721H3.44813L3.57331 0.863403L3.72125 1.30721H4.17646L3.80091 1.55758Z" fill="white"/>
<path d="M1.41102 3.82212L1.57034 4.25454L1.20618 3.98142H1.1948L0.830637 4.25454L0.989959 3.82212V3.81073L0.603027 3.56036H1.06962L1.18342 3.11652L1.33136 3.56036H1.79795L1.41102 3.81073V3.82212Z" fill="white"/>
<path d="M1.41102 6.08679L1.57034 6.51924L1.20618 6.24609H1.1948L0.830637 6.51924L0.989959 6.08679L0.603027 5.82503H1.06962L1.18342 5.39258L1.33136 5.82503H1.79795L1.41102 6.08679Z" fill="white"/>
<path d="M1.41102 8.36286L1.57034 8.79531L1.20618 8.52216H1.1948L0.830637 8.79531L0.989959 8.36286V8.35146L0.603027 8.1011H1.06962L1.18342 7.65729L1.33136 8.1011H1.79795L1.41102 8.35146V8.36286Z" fill="white"/>
<path d="M1.41102 10.6275L1.57034 11.0714L1.20618 10.7869H1.1948L0.830637 11.0714L0.989959 10.6275L0.603027 10.3772H1.06962L1.18342 9.93335L1.33136 10.3772H1.79795L1.41102 10.6275Z" fill="white"/>
<path d="M1.41102 1.55758L1.57034 1.99003L1.20618 1.72828L1.1948 1.71692V1.72828L0.830637 1.99003L0.989959 1.55758L0.603027 1.30721H1.06962L1.18342 0.863403L1.33136 1.30721H1.79795L1.41102 1.55758Z" fill="white"/>
</g>
</svg>
